<?xml version="1.0" encoding="utf-8"?>
<?xml-stylesheet type="text/xsl" href="rss1.xsl"?>
<rss version="2.0" xmlns:atom="http://www.w3.org/2005/Atom" xmlns:content="http://purl.org/rss/1.0/modules/content/" xmlns:dc="http://purl.org/dc/elements/1.1/" xmlns:media="http://search.yahoo.com/mrss/">
<channel>
 <title>Getty</title>
 <link>http://www.gettyimg.com/</link>
 <atom:link href="http://www.gettyimg.com/" rel="self" type="application/rss+xml" />

 
                <item>
                <title><![CDATA[【Requests】Filled - [REQ VID] Tainted love - Marilyn Manson 2001 [SD/HD/4K]]]></title>
                <link><![CDATA[https://sharemania.us/threads/req-vid-tainted-love-marilyn-manson-2001-sd-hd-4k.241752/]]></link>
                <description><![CDATA[<article>
<blockquote class="messageText SelectQuoteContainer ugc baseHtml">
The music video for "Tainted Love" was filmed with the same camera used for the movie: "Not Another Teen Movie". But I can't seem to find the Marilyn Manson music video version in that same quality. The YouTube version is terrible. Does anyone know where I can find the video in better quality?<br>
<br>
<img src="https://media.giphy.com/media/v1.Y2lkPTc5MGI3NjExcnJyY3l3MjFjaDdueHJmanNld2t6MzF5NnU1MHV1NDBiMWo4YjEzNCZlcD12MV9pbnRlcm5hbF9naWZfYnlfaWQmY3Q9Zw/LmFqmAV3rGZ93yQpqM/giphy.gif" class="bbCodeImage LbImage" alt="[​IMG]" data-url="https://media.giphy.com/media/v1.Y2lkPTc5MGI3NjExcnJyY3l3MjFjaDdueHJmanNld2t6MzF5NnU1MHV1NDBiMWo4YjEzNCZlcD12MV9pbnRlcm5hbF9naWZfYnlfaWQmY3Q9Zw/LmFqmAV3rGZ93yQpqM/giphy.gif" style="">
<div class="messageTextEndMarker">&nbsp;</div>
</blockquote>
</article>]]></description>
                <author><![CDATA[kpoviv]]></author>
                </item>

                
                <item>
                <title><![CDATA[【Requests】[REQ AUD] - SNZ - Retrato Imaginário (Gvô Mix + Extended) [LOSSLESS]]]></title>
                <link><![CDATA[https://sharemania.us/threads/snz-retrato-imagin%C3%A1rio-gv%C3%B4-mix-extended-lossless.241751/]]></link>
                <description><![CDATA[<article>
<blockquote class="messageText SelectQuoteContainer ugc baseHtml">
Hii, Does anyone have SNZ - Retrato Imaginário (Maxi Single) lossless?<br>
Looking for..<br>
<br>
Retrato Imaginário (Gvô Mix)<br>
Retrato Imaginário (Gvô Extended Mix)<br>
<br>
<a href="https://www.discogs.com/pt_BR/release/10068249-SNZ-Retrato-Imaginário" target="_blank" class="externalLink" rel="nofollow">https://www.discogs.com/pt_BR/release/10068249-SNZ-Retrato-Imaginário</a>
<div class="messageTextEndMarker">&nbsp;</div>
</blockquote>
</article>]]></description>
                <author><![CDATA[DarlingBeMyValentine]]></author>
                </item>

                
                <item>
                <title><![CDATA[【Requests】[REQ CAP] - [REQ AUD] Bad Omens - THE DEATH OF PEACE OF MIND (Qobuz)]]></title>
                <link><![CDATA[https://sharemania.us/threads/req-aud-bad-omens-the-death-of-peace-of-mind-qobuz.241750/]]></link>
                <description><![CDATA[<article>
<blockquote class="messageText SelectQuoteContainer ugc baseHtml">
Please
<div class="messageTextEndMarker">&nbsp;</div>
</blockquote>
</article>]]></description>
                <author><![CDATA[alexxvrs]]></author>
                </item>

                
                <item>
                <title><![CDATA[【PRORES HD】Danny Ocean - Cero Condiciones [ProRes 4k]]]></title>
                <link><![CDATA[https://sharemania.us/threads/danny-ocean-cero-condiciones-prores-4k.241749/]]></link>
                <description><![CDATA[<article>
<blockquote class="messageText SelectQuoteContainer ugc baseHtml">
<div style="text-align: center"><img src="https://i.ibb.co/hgLD6Pv/20240409010957.gif" class="bbCodeImage LbImage" alt="[​IMG]" data-url="https://i.ibb.co/hgLD6Pv/20240409010957.gif" style=""><br>
​</div>
<div class="ToggleTriggerAnchor bbCodeSpoilerContainer">
<button type="button" class="button bbCodeSpoilerButton ToggleTrigger Tooltip JsOnly" data-target="> .SpoilerTarget"><span>Spoiler: <span class="SpoilerTitle">ProRes</span></span></button>
<div class="SpoilerTarget bbCodeSpoilerText">
<div class="bbCodeBlock bbCodeCode">
<div class="type">Code:</div>
<pre>General
Complete name                            : Danny Ocean - Cero Condiciones.mp4
Format                                   : MPEG-4
Format profile                           : QuickTime
Codec ID                                 : qt   2005.03 (qt  )
File size                                : 16.6 GiB
Duration                                 : 3 min 47 s
Overall bit rate mode                    : Variable
Overall bit rate                         : 626 Mb/s
Frame rate                               : 24.000 FPS
Encoded date                             : 2024-03-20 10:55:37 UTC
Tagged date                              : 2024-03-19 13:43:26 UTC
Writing library                          : Apple QuickTime
TIM                                      : 00:00:00:00
TSC                                      : 24
TSZ                                      : 1

Video
ID                                       : 1
Format                                   : ProRes
Format version                           : Version 0
Format profile                           : 422 HQ
Codec ID                                 : apch
Duration                                 : 3 min 47 s
Bit rate mode                            : Variable
Bit rate                                 : 624 Mb/s
Width                                    : 3 840 pixels
Height                                   : 2 160 pixels
Display aspect ratio                     : 16:9
Frame rate mode                          : Constant
Frame rate                               : 24.000 FPS
Color space                              : YUV
Chroma subsampling                       : 4:2:2
Scan type                                : Progressive
Bits/(Pixel*Frame)                       : 3.135
Stream size                              : 16.5 GiB (100%)
Writing library                          : adb0
Language                                 : English
Encoded date                             : 2024-03-20 10:55:37 UTC
Tagged date                              : 2024-03-20 10:55:37 UTC
Color primaries                          : BT.709
Transfer characteristics                 : BT.709
Matrix coefficients                      : BT.709

Audio
ID                                       : 2
Format                                   : PCM
Format settings                          : Little / Signed
Codec ID                                 : sowt
Duration                                 : 3 min 47 s
Bit rate mode                            : Constant
Bit rate                                 : 1 536 kb/s
Channel(s)                               : 2 channels
Channel layout                           : L R
Sampling rate                            : 48.0 kHz
Bit depth                                : 16 bits
Stream size                              : 41.7 MiB (0%)
Language                                 : English
Encoded date                             : 2024-03-20 10:55:37 UTC
Tagged date                              : 2024-03-20 10:55:37 UTC

Other
ID                                       : 3
Type                                     : Time code
Format                                   : QuickTime TC
Duration                                 : 3 min 47 s
Frame rate                               : 24.000 FPS
Time code of first frame                 : 00:00:00:00
Time code of last frame                  : 00:03:47:15
Time code, stripped                      : Yes
Language                                 : English
Encoded date                             : 2024-03-20 10:55:37 UTC
Tagged date                              : 2024-03-20 10:55:37 UTC</pre>
</div><div style="text-align: center">​</div></div>
</div><div style="text-align: center"><br>
<div class="bbCodeBlock bbCodeVfcHH HiddenContent">
<div class="attribution type">Hidden Content:</div>
<blockquote>You must reply before you can see the hidden data contained here.</blockquote>
</div></div>
<div class="messageTextEndMarker">&nbsp;</div>
</blockquote>
</article>]]></description>
                <author><![CDATA[fstambuk]]></author>
                </item>

                
                <item>
                <title><![CDATA[【Albums (lossy)】iTunes Plus - delete]]></title>
                <link><![CDATA[https://sharemania.us/threads/delete.241753/]]></link>
                <description><![CDATA[<article>
<blockquote class="messageText SelectQuoteContainer ugc baseHtml">
delete
<div class="messageTextEndMarker">&nbsp;</div>
</blockquote>
</article>]]></description>
                <author><![CDATA[rominuchiis]]></author>
                </item>

                </channel></rss>